<?xml version="1.0" encoding="UTF-8"?>
<!DOCTYPE svg PUBLIC "-//W3C//DTD SVG 1.1//EN" "http://www.w3.org/Graphics/SVG/1.1/DTD/svg11.dtd">
<!-- Creator: CorelDRAW 2021 (64-Bit) -->
<svg xmlns="http://www.w3.org/2000/svg" xml:space="preserve" width="250px" height="22px" version="1.1" style="shape-rendering:geometricPrecision; text-rendering:geometricPrecision; image-rendering:optimizeQuality; fill-rule:evenodd; clip-rule:evenodd"
viewBox="0 0 5.637 0.497"
 xmlns:xlink="http://www.w3.org/1999/xlink"
 xmlns:xodm="http://www.corel.com/coreldraw/odm/2003">
 <defs>
  <style type="text/css">
   <![CDATA[
    .fil0 {fill:#ff6600}
    .fil1 {fill:white}
   ]]>
  </style>
 </defs>
 <g id="Слой_x0020_1">
  <metadata id="CorelCorpID_0Corel-Layer"/>
  <g id="_1691174883872">
   <path class="fil0" d="M2.388 0.002l0.125 0 -0.148 0.22 -0.062 -0.092c0,0 0.061,-0.092 0.085,-0.128z"/>
   <polygon class="fil0" points="2.21,0.267 2.273,0.362 2.183,0.497 2.056,0.497 "/>
   <polygon class="fil0" points="2.52,0.497 2.393,0.497 2.061,0.002 2.186,0.002 "/>
   <polygon class="fil0" points="1.837,0.198 1.998,0.198 1.998,0.302 1.837,0.302 "/>
   <polygon class="fil0" points="2.044,0.106 1.837,0.106 1.837,0.002 2.044,0.002 "/>
   <polygon class="fil0" points="2.044,0.497 1.837,0.497 1.837,0.393 2.044,0.393 "/>
   <polygon class="fil0" points="1.813,0.497 1.706,0.497 1.706,0.002 1.813,0.002 "/>
   <g>
    <polygon class="fil0" points="1.648,0.106 1.313,0.106 1.313,0.002 1.648,0.002 "/>
    <polygon class="fil0" points="1.533,0.497 1.43,0.497 1.43,0.13 1.533,0.13 "/>
   </g>
   <g>
    <path class="fil0" d="M1.269 0.181l-0.102 0c0,-0.015 0.002,-0.027 -0.006,-0.041 -0.008,-0.015 -0.02,-0.027 -0.036,-0.033 -0.013,-0.006 -0.02,-0.005 -0.034,-0.005l0 -0.1 0.014 0c0.023,0 0.044,0.005 0.065,0.015 0.039,0.019 0.069,0.05 0.086,0.089 0.008,0.019 0.013,0.038 0.013,0.058l0 0.017z"/>
    <path class="fil0" d="M1.269 0.316l0 0.017c0,0.041 -0.019,0.082 -0.047,0.112 -0.031,0.032 -0.072,0.052 -0.117,0.052l-0.014 0 0 -0.101c0.014,0 0.021,0.001 0.035,-0.005 0.015,-0.005 0.027,-0.017 0.035,-0.032 0.008,-0.013 0.006,-0.028 0.006,-0.043l0.102 0z"/>
    <path class="fil0" d="M1.067 0.497l-0.015 0c-0.067,0 -0.125,-0.045 -0.151,-0.105 -0.008,-0.019 -0.013,-0.038 -0.013,-0.059l0 -0.169c0,-0.041 0.02,-0.081 0.048,-0.11 0.015,-0.015 0.033,-0.028 0.052,-0.037 0.02,-0.01 0.042,-0.015 0.064,-0.015l0.015 0 0 0.1c-0.014,0 -0.022,-0.002 -0.035,0.005 -0.02,0.01 -0.043,0.033 -0.043,0.057l0 0.17c0,0.026 0.02,0.048 0.043,0.057 0.013,0.006 0.021,0.005 0.035,0.005l0 0.101z"/>
   </g>
   <g>
    <path class="fil0" d="M0.628 0.497l-0.014 0c-0.024,0 -0.047,-0.005 -0.068,-0.015 -0.039,-0.018 -0.069,-0.05 -0.085,-0.09 -0.007,-0.019 -0.011,-0.039 -0.011,-0.059l0 -0.169c0,-0.04 0.018,-0.08 0.045,-0.11 0.015,-0.015 0.032,-0.028 0.052,-0.037 0.021,-0.01 0.043,-0.015 0.067,-0.015l0.014 0 0 0.1c-0.014,0 -0.027,-0.001 -0.04,0.005 -0.023,0.01 -0.037,0.033 -0.037,0.057l0 0.171c0,0.034 0.03,0.063 0.063,0.063l0.014 0 0 0.099z"/>
    <path class="fil0" d="M0.652 0.002l0.015 0c0.023,0 0.047,0.005 0.068,0.015 0.039,0.018 0.068,0.049 0.084,0.089 0.007,0.019 0.011,0.038 0.011,0.058l0 0.169c0,0.041 -0.015,0.081 -0.043,0.112 -0.014,0.016 -0.032,0.028 -0.051,0.037 -0.022,0.01 -0.046,0.015 -0.069,0.015l-0.015 0 0 -0.099c0.014,0 0.024,0.001 0.037,-0.004 0.024,-0.01 0.04,-0.033 0.04,-0.059l0 -0.171c0,-0.017 -0.005,-0.032 -0.017,-0.045 -0.012,-0.013 -0.028,-0.017 -0.045,-0.017l-0.015 0 0 -0.1z"/>
   </g>
   <g>
    <path class="fil0" d="M0.256 0.233l-0.058 0.081 -0.198 -0.263 0 -0.049 0.087 0c0,0 0.169,0.231 0.169,0.231z"/>
    <polygon class="fil0" points="0.104,0.497 0,0.497 0,0.089 0.104,0.228 "/>
    <path class="fil0" d="M0.289 0.187l-0.018 0.025 -0.06 -0.078c0,0 0.092,-0.132 0.092,-0.132l0.089 0 0 0.495 -0.103 0 0 -0.31z"/>
   </g>
  </g>
  <path class="fil1" d="M4.737 0.319l-0.096 0c0,0.014 0.001,0.028 -0.006,0.042 -0.034,0.062 -0.177,0.053 -0.177,-0.027l0 -0.17c0,-0.01 0.002,-0.019 0.007,-0.027 0.016,-0.029 0.055,-0.041 0.086,-0.041 0.033,0.001 0.067,0.013 0.084,0.043 0.007,0.013 0.006,0.025 0.006,0.039l0.096 0 0 -0.014c0,-0.061 -0.043,-0.118 -0.098,-0.145 -0.053,-0.025 -0.125,-0.025 -0.178,0 -0.019,0.01 -0.036,0.022 -0.051,0.037 -0.028,0.029 -0.047,0.068 -0.047,0.108l0 0.169c0,0.02 0.005,0.04 0.012,0.058 0.012,0.03 0.032,0.055 0.058,0.073 0.037,0.024 0.082,0.034 0.126,0.032 0.092,-0.005 0.178,-0.063 0.178,-0.163l0 -0.014zm-0.771 0.175c0.111,0 0.221,0 0.332,0l0 -0.098 -0.231 0 0 -0.096 0.185 0 0 -0.099 -0.185 0 0 -0.098 0.003 0c0.076,0 0.152,0 0.228,0l0 -0.098c-0.111,0 -0.221,0 -0.332,0l0 0.489zm-0.42 -0.489l0 0.489c0.069,0 0.137,0 0.206,0 0.092,0 0.15,-0.061 0.15,-0.153 0,-0.021 -0.004,-0.041 -0.013,-0.061 -0.008,-0.017 -0.02,-0.032 -0.035,-0.043l-0.003 -0.002 0.002 -0.003c0.01,-0.009 0.019,-0.02 0.026,-0.032 0.01,-0.017 0.014,-0.035 0.014,-0.055 0,-0.039 -0.01,-0.077 -0.04,-0.104 -0.03,-0.027 -0.069,-0.036 -0.109,-0.036 -0.066,0 -0.132,0 -0.198,0zm0.099 0.396l0 -0.115 0.003 0c0.037,0 0.073,0 0.11,0 0.022,0 0.039,0.016 0.046,0.036 0.003,0.008 0.004,0.015 0.004,0.024 0,0.014 -0.005,0.027 -0.015,0.038 -0.009,0.011 -0.021,0.017 -0.035,0.017 -0.037,0 -0.073,0 -0.11,0l-0.003 0zm0.003 -0.299c0.034,0 0.068,0 0.103,0 0.012,0 0.027,0.002 0.036,0.012 0.008,0.009 0.012,0.019 0.012,0.03 0,0.014 -0.002,0.025 -0.013,0.035 -0.009,0.01 -0.022,0.013 -0.035,0.013 -0.035,0 -0.069,0 -0.103,0l-0.003 0 0 -0.09 0.003 0zm-0.165 0.392l0 -0.489 -0.098 0 0 0.489 0.098 0zm-0.483 0c0.066,0 0.133,0 0.2,0 0.062,0 0.119,-0.03 0.143,-0.09 0.016,-0.038 0.016,-0.09 0,-0.127 -0.024,-0.06 -0.081,-0.09 -0.143,-0.09 -0.033,0 -0.066,0 -0.099,0l-0.002 0 0 -0.182 -0.099 0 0 0.489zm0.202 -0.094c-0.034,0 -0.067,0 -0.101,0l-0.002 0 0 -0.119 0.002 0c0.034,0 0.067,0 0.101,0 0.017,0 0.033,0.004 0.044,0.018 0.021,0.024 0.021,0.058 0,0.082 -0.011,0.014 -0.027,0.019 -0.044,0.019zm1.698 -0.395l-0.099 0 0 0.489 0.099 0 0 -0.141 0.058 -0.064 0.053 0.081 0.001 0 0.081 0.124 0.117 0 -0.185 -0.28 0.189 -0.209 -0.124 0 -0.003 0.003 -0.187 0.206 0 -0.209zm0.319 0.489l0.101 0c0.001,-0.004 0.003,-0.008 0.004,-0.012 0.003,-0.009 0.006,-0.019 0.009,-0.028 0.005,-0.014 0.009,-0.028 0.014,-0.042l0 -0.002 0.094 0 0.067 0 0.024 0.078 0.002 0.006 0.091 0c0.001,0 0.001,0 0.001,0l0.011 0 -0.153 -0.489 -0.096 0 0 0 -0.018 0 -0.044 0.142 0 0.001 -0.107 0.346zm0.156 -0.182l0.053 -0.164 0.05 0.164 -0.078 0 -0.025 0zm-2.795 -0.307l0 0.489c0.069,0 0.137,0 0.206,0 0.092,0 0.15,-0.061 0.15,-0.153 0,-0.021 -0.004,-0.041 -0.013,-0.061 -0.008,-0.017 -0.02,-0.032 -0.036,-0.043l-0.002 -0.002 0.002 -0.003c0.01,-0.009 0.018,-0.02 0.025,-0.032 0.01,-0.017 0.015,-0.035 0.015,-0.055 0,-0.039 -0.01,-0.077 -0.04,-0.104 -0.03,-0.027 -0.07,-0.036 -0.109,-0.036 -0.066,0 -0.132,0 -0.198,0zm0.099 0.396l0 -0.115 0.003 0c0.036,0 0.073,0 0.109,0 0.022,0 0.039,0.016 0.047,0.036 0.003,0.008 0.003,0.015 0.003,0.024 0,0.014 -0.005,0.027 -0.014,0.038 -0.009,0.011 -0.021,0.017 -0.036,0.017 -0.036,0 -0.073,0 -0.109,0l-0.003 0zm0.003 -0.299c0.034,0 0.068,0 0.102,0 0.013,0 0.028,0.002 0.037,0.012 0.008,0.009 0.011,0.019 0.011,0.03 0,0.014 -0.002,0.025 -0.012,0.035 -0.009,0.01 -0.023,0.013 -0.036,0.013 -0.034,0 -0.068,0 -0.102,0l-0.003 0 0 -0.09 0.003 0z"/>
 </g>
</svg>
